<?xml version="1.0" encoding="UTF-8"?><svg id="a" xmlns="http://www.w3.org/2000/svg" xmlns:xlink="http://www.w3.org/1999/xlink" viewBox="0 0 1200 400"><defs><radialGradient id="b" cx="-358.2" cy="739.65" fx="-358.2" fy="739.65" r=".65" gradientTransform="translate(430441 296061) scale(1200 -400)" gradientUnits="userSpaceOnUse"><stop offset="0" stop-color="#f3ede5"/><stop offset="1" stop-color="#e8e0d4"/></radialGradient><pattern id="c" x="0" y="0" width="40" height="40" patternTransform="translate(39 -15283) scale(1 -1)" patternUnits="userSpaceOnUse" viewBox="0 0 40 40"><rect width="40" height="40" style="fill:none;"/><polyline points="40 40 0 40 0 0" style="fill:none; opacity:.03; stroke:#37342f; stroke-width:.5px;"/></pattern><radialGradient id="d" cx="-358.2" cy="739.7" fx="-358.2" fy="739.7" r=".25" gradientTransform="translate(430441 296061) scale(1200 -400)" gradientUnits="userSpaceOnUse"><stop offset="0" stop-color="#6b9e9e" stop-opacity=".08"/><stop offset="1" stop-color="#6b9e9e" stop-opacity="0"/></radialGradient><filter id="e" x="-10%" y="-50%" width="120%" height="200%"><feGaussianBlur stdDeviation="1.5"/></filter><filter id="f" x="-100%" y="-100%" width="300%" height="300%"><feGaussianBlur result="blur" stdDeviation="3"/><feMerge><feMergeNode in="blur"/><feMergeNode in="SourceGraphic"/></feMerge></filter><linearGradient id="g" x1="-356.44" y1="402" x2="-355.44" y2="402" gradientTransform="translate(50241 602) scale(140 -1)" gradientUnits="userSpaceOnUse"><stop offset="0" stop-color="#6b9e9e" stop-opacity="0"/><stop offset="1" stop-color="#6b9e9e" stop-opacity=".45"/></linearGradient><linearGradient id="h" x1="-356.44" y1="402" x2="-355.44" y2="402" gradientTransform="translate(50621 602) scale(140 -1)" gradientUnits="userSpaceOnUse"><stop offset="0" stop-color="#6b9e9e" stop-opacity=".45"/><stop offset="1" stop-color="#6b9e9e" stop-opacity="0"/></linearGradient></defs><rect width="1200" height="400" style="fill:url(#b);"/><rect width="1200" height="400" style="fill:url(#c);"/><rect width="1200" height="400" style="fill:url(#d);"/><g style="filter:url(#e); opacity:.3;"><line x1="80" y1="90" x2="185" y2="155" style="fill:none; stroke:#6b9e9e; stroke-width:.7px;"/><line x1="50" y1="200" x2="185" y2="155" style="fill:none; stroke:#6b9e9e; stroke-width:.7px;"/><line x1="80" y1="310" x2="185" y2="245" style="fill:none; stroke:#6b9e9e; stroke-width:.7px;"/><line x1="50" y1="200" x2="185" y2="245" style="fill:none; stroke:#6b9e9e; stroke-width:.7px;"/><line x1="185" y1="155" x2="185" y2="245" style="fill:none; stroke:#6b9e9e; stroke-width:.5px;"/><line x1="185" y1="155" x2="310" y2="180" style="fill:none; stroke:#6b9e9e; stroke-width:.7px;"/><line x1="185" y1="245" x2="310" y2="220" style="fill:none; stroke:#6b9e9e; stroke-width:.7px;"/><line x1="185" y1="155" x2="310" y2="120" style="fill:none; stroke:#c07050; stroke-width:.5px;"/><line x1="185" y1="245" x2="310" y2="290" style="fill:none; stroke:#c07050; stroke-width:.5px;"/><line x1="310" y1="120" x2="310" y2="180" style="fill:none; stroke:#6b9e9e; stroke-width:.4px;"/><line x1="310" y1="220" x2="310" y2="290" style="fill:none; stroke:#6b9e9e; stroke-width:.4px;"/><line x1="310" y1="180" x2="310" y2="220" style="fill:none; stroke:#6b9e9e; stroke-width:.4px;"/><line x1="1120" y1="90" x2="1015" y2="155" style="fill:none; stroke:#6b9e9e; stroke-width:.7px;"/><line x1="1150" y1="200" x2="1015" y2="155" style="fill:none; stroke:#6b9e9e; stroke-width:.7px;"/><line x1="1120" y1="310" x2="1015" y2="245" style="fill:none; stroke:#6b9e9e; stroke-width:.7px;"/><line x1="1150" y1="200" x2="1015" y2="245" style="fill:none; stroke:#6b9e9e; stroke-width:.7px;"/><line x1="1015" y1="155" x2="1015" y2="245" style="fill:none; stroke:#6b9e9e; stroke-width:.5px;"/><line x1="1015" y1="155" x2="890" y2="180" style="fill:none; stroke:#6b9e9e; stroke-width:.7px;"/><line x1="1015" y1="245" x2="890" y2="220" style="fill:none; stroke:#6b9e9e; stroke-width:.7px;"/><line x1="1015" y1="155" x2="890" y2="120" style="fill:none; stroke:#c07050; stroke-width:.5px;"/><line x1="1015" y1="245" x2="890" y2="290" style="fill:none; stroke:#c07050; stroke-width:.5px;"/><line x1="890" y1="120" x2="890" y2="180" style="fill:none; stroke:#6b9e9e; stroke-width:.4px;"/><line x1="890" y1="220" x2="890" y2="290" style="fill:none; stroke:#6b9e9e; stroke-width:.4px;"/><line x1="890" y1="180" x2="890" y2="220" style="fill:none; stroke:#6b9e9e; stroke-width:.4px;"/><line x1="310" y1="180" x2="420" y2="195" style="fill:none; stroke:#6b9e9e; stroke-width:.5px;"/><line x1="310" y1="220" x2="420" y2="205" style="fill:none; stroke:#6b9e9e; stroke-width:.5px;"/><line x1="890" y1="180" x2="780" y2="195" style="fill:none; stroke:#6b9e9e; stroke-width:.5px;"/><line x1="890" y1="220" x2="780" y2="205" style="fill:none; stroke:#6b9e9e; stroke-width:.5px;"/></g><g style="filter:url(#f);"><circle cx="80" cy="90" r="2.5" style="fill:#6b9e9e; isolation:isolate; opacity:.5;"/><circle cx="50" cy="200" r="3" style="fill:#6b9e9e; isolation:isolate; opacity:.6;"/><circle cx="80" cy="310" r="2.5" style="fill:#6b9e9e; isolation:isolate; opacity:.5;"/><circle cx="185" cy="155" r="3.5" style="fill:#6b9e9e; isolation:isolate; opacity:.65;"/><circle cx="185" cy="245" r="3.5" style="fill:#6b9e9e; isolation:isolate; opacity:.65;"/><circle cx="310" cy="120" r="2" style="fill:#c07050; isolation:isolate; opacity:.5;"/><circle cx="310" cy="180" r="3" style="fill:#6b9e9e; isolation:isolate; opacity:.6;"/><circle cx="310" cy="220" r="3" style="fill:#6b9e9e; isolation:isolate; opacity:.6;"/><circle cx="310" cy="290" r="2" style="fill:#c07050; isolation:isolate; opacity:.5;"/><circle cx="420" cy="195" r="2" style="fill:#6b9e9e; isolation:isolate; opacity:.35;"/><circle cx="420" cy="205" r="2" style="fill:#6b9e9e; isolation:isolate; opacity:.35;"/><circle cx="1120" cy="90" r="2.5" style="fill:#6b9e9e; isolation:isolate; opacity:.5;"/><circle cx="1150" cy="200" r="3" style="fill:#6b9e9e; isolation:isolate; opacity:.6;"/><circle cx="1120" cy="310" r="2.5" style="fill:#6b9e9e; isolation:isolate; opacity:.5;"/><circle cx="1015" cy="155" r="3.5" style="fill:#6b9e9e; isolation:isolate; opacity:.65;"/><circle cx="1015" cy="245" r="3.5" style="fill:#6b9e9e; isolation:isolate; opacity:.65;"/><circle cx="890" cy="120" r="2" style="fill:#c07050; isolation:isolate; opacity:.5;"/><circle cx="890" cy="180" r="3" style="fill:#6b9e9e; isolation:isolate; opacity:.6;"/><circle cx="890" cy="220" r="3" style="fill:#6b9e9e; isolation:isolate; opacity:.6;"/><circle cx="890" cy="290" r="2" style="fill:#c07050; isolation:isolate; opacity:.5;"/><circle cx="780" cy="195" r="2" style="fill:#6b9e9e; isolation:isolate; opacity:.35;"/><circle cx="780" cy="205" r="2" style="fill:#6b9e9e; isolation:isolate; opacity:.35;"/></g><line x1="340" y1="200" x2="480" y2="200" style="fill:none; isolation:isolate; opacity:.6; stroke:url(#g); stroke-width:.7px;"/><line x1="720" y1="200" x2="860" y2="200" style="fill:none; isolation:isolate; opacity:.6; stroke:url(#h); stroke-width:.7px;"/><polygon points="480 196 484 200 480 204 476 200 480 196" style="fill:#6b9e9e; isolation:isolate; opacity:.3;"/><polygon points="720 196 724 200 720 204 716 200 720 196" style="fill:#6b9e9e; isolation:isolate; opacity:.3;"/><g style="opacity:.15;"><circle cx="150" cy="50" r="1" style="fill:#37342f;"/><circle cx="340" cy="70" r=".8" style="fill:#37342f;"/><circle cx="520" cy="45" r=".6" style="fill:#37342f;"/><circle cx="700" cy="60" r=".8" style="fill:#37342f;"/><circle cx="870" cy="40" r="1" style="fill:#37342f;"/><circle cx="1050" cy="55" r=".7" style="fill:#37342f;"/><circle cx="200" cy="360" r=".8" style="fill:#37342f;"/><circle cx="400" cy="345" r=".6" style="fill:#37342f;"/><circle cx="600" cy="365" r="1" style="fill:#37342f;"/><circle cx="830" cy="350" r=".7" style="fill:#37342f;"/><circle cx="1000" cy="370" r=".8" style="fill:#37342f;"/><circle cx="130" cy="140" r=".5" style="fill:#6b9e9e;"/><circle cx="1070" cy="140" r=".5" style="fill:#6b9e9e;"/><circle cx="240" cy="340" r=".5" style="fill:#c07050;"/><circle cx="960" cy="340" r=".5" style="fill:#c07050;"/></g><text transform="translate(473.69 192)" style="fill:#37342f; font-family:Georgia-Bold, Georgia; font-size:84px; font-weight:700; isolation:isolate; letter-spacing:.17em;"><tspan x="0" y="0">axon</tspan></text><text transform="translate(389.32 245)" style="fill:#6b9e9e; font-family:ArialMT, Arial; font-size:14px; isolation:isolate; opacity:.85;"><tspan x="0" y="0" style="letter-spacing:.43em;">SELF-HOSTED</tspan><tspan x="163.93" y="0" style="letter-spacing:.37em;"> </tspan><tspan x="173.03" y="0" style="letter-spacing:.43em;">AI COMMAND CENTER</tspan></text><line x1="520" y1="264" x2="680" y2="264" style="fill:none; isolation:isolate; opacity:.2; stroke:#6b9e9e; stroke-width:.5px;"/><g style="opacity:.45;"><path d="M543.7,278h112.59c7.94,0,14.37,5.37,14.37,12h0c0,6.63-6.44,12-14.37,12h-112.59c-7.94,0-14.37-5.37-14.37-12h0c0-6.63,6.44-12,14.37-12Z" style="fill:none; stroke:#c07050; stroke-width:.77px;"/><text transform="translate(545.67 294)" style="fill:#c07050; font-family:System, System; font-size:10px; isolation:isolate; letter-spacing:.3em;"><tspan x="0" y="0">OPEN SOURCE</tspan></text></g><line y1="1" x2="1200" y2="1" style="fill:none; isolation:isolate; opacity:.4; stroke:#d1c6ab;"/><line y1="399" x2="1200" y2="399" style="fill:none; isolation:isolate; opacity:.4; stroke:#d1c6ab;"/></svg>